<?xml version="1.0" encoding="utf-8"?>
<!-- Generator: Adobe Illustrator 21.1.0, SVG Export Plug-In . SVG Version: 6.00 Build 0)  -->
<svg version="1.1" id="Layer_1" xmlns="http://www.w3.org/2000/svg" xmlns:xlink="http://www.w3.org/1999/xlink" x="0px" y="0px"
	 viewBox="0 0 48 48" style="enable-background:new 0 0 48 48;" xml:space="preserve">
<style type="text/css">
	.st0{fill:#FFFFFF;}
</style>
<path class="st0" d="M28,28H27l-0.4-0.4c1.3-1.5,2.1-3.5,2.1-5.6c0-4.8-3.9-8.7-8.7-8.7s-8.7,3.9-8.7,8.7s3.9,8.7,8.7,8.7
	c2.1,0,4.1-0.8,5.6-2.1l0.4,0.4V30l6.7,6.7l2-2L28,28z M20,28c-3.3,0-6-2.7-6-6s2.7-6,6-6s6,2.7,6,6S23.4,28,20,28z"/>
</svg>
